<?xml version="1.0" encoding="UTF-8" standalone="no"?>
<!-- Created with Inkscape (http://www.inkscape.org/) -->

<svg
   xmlns:dc="http://purl.org/dc/elements/1.1/"
   xmlns:cc="http://creativecommons.org/ns#"
   xmlns:rdf="http://www.w3.org/1999/02/22-rdf-syntax-ns#"
   xmlns:svg="http://www.w3.org/2000/svg"
   xmlns="http://www.w3.org/2000/svg"
   xmlns:sodipodi="http://sodipodi.sourceforge.net/DTD/sodipodi-0.dtd"
   xmlns:inkscape="http://www.inkscape.org/namespaces/inkscape"
   width="48"
   height="48"
   viewBox="0 0 12.7 12.7"
   version="1.1"
   id="svg8"
   inkscape:export-filename="C:\Users\jakub.vicha\Desktop\NATURE\nature logo.png"
   inkscape:export-xdpi="96"
   inkscape:export-ydpi="96"
   inkscape:version="0.92.2 (5c3e80d, 2017-08-06)"
   sodipodi:docname="drawing.svg">
  <defs
     id="defs2" />
  <sodipodi:namedview
     id="base"
     pagecolor="#ffffff"
     bordercolor="#666666"
     borderopacity="1.0"
     inkscape:pageopacity="0"
     inkscape:pageshadow="2"
     inkscape:zoom="11.2"
     inkscape:cx="18.158472"
     inkscape:cy="23.903909"
     inkscape:document-units="mm"
     inkscape:current-layer="layer1"
     showgrid="false"
     units="px"
     inkscape:window-width="1920"
     inkscape:window-height="1017"
     inkscape:window-x="-8"
     inkscape:window-y="-8"
     inkscape:window-maximized="1" />
  <metadata
     id="metadata5">
    <rdf:RDF>
      <cc:Work
         rdf:about="">
        <dc:format>image/svg+xml</dc:format>
        <dc:type
           rdf:resource="http://purl.org/dc/dcmitype/StillImage" />
        <dc:title></dc:title>
      </cc:Work>
    </rdf:RDF>
  </metadata>
  <g
     inkscape:label="Vrstva 1"
     inkscape:groupmode="layer"
     id="layer1"
     transform="translate(0,-284.3)">
    <path
       style="fill:none;stroke:#007800;stroke-width:0.347;stroke-linecap:butt;stroke-linejoin:round;stroke-opacity:1;fill-opacity:1;stroke-miterlimit:4;stroke-dasharray:none"
       d="m 1.5152328,289.51948 c 0.8849159,-0.38564 1.4011797,-0.89882 3.1680863,-0.97749 2.1873201,0.21701 3.9844617,1.88115 6.7664469,2.63026 -2.9538669,1.20373 -4.5802025,2.05227 -7.1624578,1.38835 -1.4516773,-0.4365 -1.939564,-2.23597 -2.7720754,-3.04112 z"
       id="path3703"
       inkscape:connector-curvature="0"
       sodipodi:nodetypes="ccccc" />
    <g
       aria-label="Nature"
       style="font-style:normal;font-variant:normal;font-weight:normal;font-stretch:normal;font-size:1.41111112px;line-height:1.25;font-family:sans-serif;-inkscape-font-specification:'sans-serif, Normal';font-variant-ligatures:normal;font-variant-caps:normal;font-variant-numeric:normal;font-feature-settings:normal;text-align:start;letter-spacing:0px;word-spacing:0px;writing-mode:lr-tb;text-anchor:start;fill:#000000;fill-opacity:1;stroke:none;stroke-width:0.26458332"
       id="text4514"
       transform="rotate(13.286172,-7.8645829,297.08912)">
      <path
         inkscape:connector-curvature="0"
         d="M 2.4324344,287.78683 H 2.2636247 l -0.4864475,-0.91777 v 0.91777 H 1.6497087 v -1.02594 h 0.2115288 l 0.4437283,0.83784 v -0.83784 h 0.1274686 z"
         style="font-style:normal;font-variant:normal;font-weight:normal;font-stretch:normal;font-size:1.41111112px;font-family:sans-serif;-inkscape-font-specification:'sans-serif, Normal';font-variant-ligatures:normal;font-variant-caps:normal;font-variant-numeric:normal;font-feature-settings:normal;text-align:start;writing-mode:lr-tb;text-anchor:start;stroke-width:0.26458332"
         id="path4516" />
      <path
         inkscape:connector-curvature="0"
         d="M 3.2930192,287.78683 H 3.1641727 v -0.082 q -0.017225,0.0117 -0.046853,0.0331 -0.028939,0.0207 -0.0565,0.0331 -0.032384,0.0158 -0.074414,0.0262 -0.04203,0.011 -0.09853,0.011 -0.1040419,0 -0.1763889,-0.0689 -0.072347,-0.0689 -0.072347,-0.1757 0,-0.0875 0.037207,-0.14125 0.037896,-0.0544 0.107487,-0.0854 0.07028,-0.031 0.1688097,-0.042 0.09853,-0.011 0.2115289,-0.0165 v -0.02 q 0,-0.0441 -0.015848,-0.073 -0.015158,-0.0289 -0.044097,-0.0455 -0.027561,-0.0159 -0.066146,-0.0214 -0.038585,-0.006 -0.080615,-0.006 -0.050987,0 -0.1136881,0.0138 -0.062701,0.0131 -0.1295356,0.0386 h -0.00689 v -0.1316 q 0.037896,-0.0103 0.109554,-0.0227 0.071658,-0.0124 0.1412489,-0.0124 0.081304,0 0.141249,0.0138 0.060634,0.0131 0.1047309,0.0455 0.043408,0.0317 0.066146,0.082 0.022738,0.0503 0.022738,0.12471 z m -0.1288465,-0.18948 v -0.21428 q -0.059256,0.003 -0.1398709,0.0103 -0.079926,0.007 -0.1267795,0.02 -0.055811,0.0158 -0.090261,0.0496 -0.034451,0.0331 -0.034451,0.0916 0,0.0661 0.039963,0.0999 0.039963,0.0331 0.1219564,0.0331 0.068213,0 0.1247125,-0.0262 0.056499,-0.0269 0.1047309,-0.0641 z"
         style="font-style:normal;font-variant:normal;font-weight:normal;font-stretch:normal;font-size:1.41111112px;font-family:sans-serif;-inkscape-font-specification:'sans-serif, Normal';font-variant-ligatures:normal;font-variant-caps:normal;font-variant-numeric:normal;font-feature-settings:normal;text-align:start;writing-mode:lr-tb;text-anchor:start;stroke-width:0.26458332"
         id="path4518" />
      <path
         inkscape:connector-curvature="0"
         d="m 3.9434532,287.77994 q -0.036518,0.01 -0.079926,0.0159 -0.042719,0.006 -0.076481,0.006 -0.1178223,0 -0.179145,-0.0634 -0.061323,-0.0634 -0.061323,-0.20326 v -0.40927 h -0.087505 v -0.10887 h 0.087505 v -0.22117 h 0.1295356 v 0.22117 h 0.2673394 v 0.10887 H 3.6761138 v 0.35071 q 0,0.0606 0.00276,0.0951 0.00276,0.0338 0.019293,0.0634 0.015158,0.0276 0.041341,0.0407 0.026872,0.0124 0.081304,0.0124 0.031695,0 0.066146,-0.009 0.034451,-0.01 0.049609,-0.0159 h 0.00689 z"
         style="font-style:normal;font-variant:normal;font-weight:normal;font-stretch:normal;font-size:1.41111112px;font-family:sans-serif;-inkscape-font-specification:'sans-serif, Normal';font-variant-ligatures:normal;font-variant-caps:normal;font-variant-numeric:normal;font-feature-settings:normal;text-align:start;writing-mode:lr-tb;text-anchor:start;stroke-width:0.26458332"
         id="path4520" />
      <path
         inkscape:connector-curvature="0"
         d="M 4.7385812,287.78683 H 4.6090456 v -0.0854 q -0.065457,0.0517 -0.1254015,0.0792 -0.059945,0.0276 -0.1322916,0.0276 -0.1212674,0 -0.1887913,-0.0737 -0.067524,-0.0744 -0.067524,-0.21773 v -0.4996 H 4.224573 v 0.43822 q 0,0.0586 0.00551,0.10059 0.00551,0.0413 0.023427,0.071 0.018604,0.0303 0.048231,0.0441 0.029628,0.0138 0.086127,0.0138 0.050298,0 0.109554,-0.0262 0.059945,-0.0262 0.1116211,-0.0668 v -0.57464 h 0.1295356 z"
         style="font-style:normal;font-variant:normal;font-weight:normal;font-stretch:normal;font-size:1.41111112px;font-family:sans-serif;-inkscape-font-specification:'sans-serif, Normal';font-variant-ligatures:normal;font-variant-caps:normal;font-variant-numeric:normal;font-feature-settings:normal;text-align:start;writing-mode:lr-tb;text-anchor:start;stroke-width:0.26458332"
         id="path4522" />
      <path
         inkscape:connector-curvature="0"
         d="m 5.4737647,287.15845 h -0.00689 q -0.028939,-0.007 -0.0565,-0.01 -0.026872,-0.003 -0.064079,-0.003 -0.059945,0 -0.1157552,0.0269 -0.055811,0.0262 -0.107487,0.0682 v 0.54639 H 4.9935184 V 287.0172 H 5.123054 v 0.11369 q 0.07717,-0.062 0.1357368,-0.0875 0.059256,-0.0262 0.1205783,-0.0262 0.033762,0 0.04892,0.002 0.015158,0.001 0.045475,0.006 z"
         style="font-style:normal;font-variant:normal;font-weight:normal;font-stretch:normal;font-size:1.41111112px;font-family:sans-serif;-inkscape-font-specification:'sans-serif, Normal';font-variant-ligatures:normal;font-variant-caps:normal;font-variant-numeric:normal;font-feature-settings:normal;text-align:start;writing-mode:lr-tb;text-anchor:start;stroke-width:0.26458332"
         id="path4524" />
      <path
         inkscape:connector-curvature="0"
         d="M 6.241332,287.41545 H 5.6742693 q 0,0.071 0.02136,0.12403 0.02136,0.0524 0.058567,0.0861 0.035829,0.0331 0.084749,0.0496 0.049609,0.0165 0.1088651,0.0165 0.078548,0 0.1577853,-0.031 0.079926,-0.0317 0.1136882,-0.062 h 0.00689 v 0.14125 q -0.065457,0.0276 -0.1336697,0.0462 -0.068213,0.0186 -0.143316,0.0186 -0.1915473,0 -0.2990343,-0.10335 -0.107487,-0.10405 -0.107487,-0.2949 0,-0.1888 0.1026639,-0.29973 0.1033528,-0.11093 0.2714735,-0.11093 0.1557183,0 0.2397786,0.091 0.084749,0.0909 0.084749,0.25838 z m -0.1260905,-0.0992 q -6.89e-4,-0.10197 -0.051676,-0.15778 -0.050298,-0.0558 -0.1536513,-0.0558 -0.1040419,0 -0.1660536,0.0613 -0.061323,0.0613 -0.069591,0.15227 z"
         style="font-style:normal;font-variant:normal;font-weight:normal;font-stretch:normal;font-size:1.41111112px;font-family:sans-serif;-inkscape-font-specification:'sans-serif, Normal';font-variant-ligatures:normal;font-variant-caps:normal;font-variant-numeric:normal;font-feature-settings:normal;text-align:start;writing-mode:lr-tb;text-anchor:start;stroke-width:0.26458332"
         id="path4526" />
    </g>
    <path
       style="fill:none;stroke:#007800;stroke-width:0.1;stroke-linecap:butt;stroke-linejoin:miter;stroke-miterlimit:4;stroke-dasharray:none;stroke-opacity:1"
       d="m 2.3151041,289.8657 c 3.4157767,1.38028 5.7052191,1.67756 7.4886532,1.48828"
       id="path4531"
       inkscape:connector-curvature="0"
       sodipodi:nodetypes="cc" />
    <path
       style="fill:none;stroke:#007800;stroke-width:0.26458332px;stroke-linecap:butt;stroke-linejoin:miter;stroke-opacity:1"
       d="m 0.63783482,287.8577 c -0.14880821,0.51536 0.39511558,1.53492 0.87739798,1.66178"
       id="path4551"
       inkscape:connector-curvature="0"
       sodipodi:nodetypes="cc" />
  </g>
</svg>
